<svg xmlns="http://www.w3.org/2000/svg" version="1.1" xmlns:xlink="http://www.w3.org/1999/xlink"
    xmlns:svgjs="http://svgjs.dev/svgjs" viewBox="0 0 800 400">
    <path
        d="M12.55604362487793,320.1793518066406C16.4424409866333,312.40655517578125,24.215235074361168,288.34077707926434,35.874427795410156,273.5425720214844C47.533620516459145,258.7443669637044,65.17188898722331,242.0029729207357,82.51119995117188,231.39012145996094C99.85051091512044,220.7772699991862,121.07621256510417,213.30343119303384,139.91029357910156,209.86546325683594C158.74437459309897,206.42749532063803,169.65619659423828,204.9327189127604,195.51568603515625,210.76231384277344C221.37517547607422,216.59190877278647,267.4140167236328,232.73541005452475,295.0672302246094,244.84303283691406C322.72044372558594,256.9506556193034,337.66814676920575,271.5993830362956,361.4349670410156,283.4080505371094C385.2017873128255,295.21671803792316,412.55604553222656,311.65916442871094,437.66815185546875,315.6950378417969C462.78025817871094,319.7309112548828,491.0313720703125,316.2929433186849,512.1076049804688,307.623291015625C533.183837890625,298.9536387125651,550.8221130371094,279.671142578125,564.1255493164062,263.6771240234375C577.4289855957031,247.68310546875,584.4543863932291,232.28698221842447,591.92822265625,211.6591796875C599.4020589192709,191.03137715657553,607.0253702799479,161.58444849650064,608.9685668945312,139.91030883789062C610.9117635091146,118.2361691792806,604.4842631022135,91.33033625284831,603.58740234375,81.61434173583984"
        fill="none" stroke-width="25" stroke="url(&quot;#SvgjsLinearGradient1006&quot;)"
        stroke-linecap="round" stroke-dasharray="0 41"></path>
    <defs>
        <linearGradient id="SvgjsLinearGradient1006">
            <stop stop-color="hsl(37, 91%, 55%)" offset="0"></stop>
            <stop stop-color="hsl(50, 98%, 80%)" offset="1"></stop>
        </linearGradient>
    </defs>
</svg>